<?xml version="1.0" encoding="UTF-8" standalone="no"?>
<!--

    Copyright (c) 2012-2015 Codenvy, S.A.
    All rights reserved. This program and the accompanying materials
    are made available under the terms of the Eclipse Public License v1.0
    which accompanies this distribution, and is available at
    http://www.eclipse.org/legal/epl-v10.html

    Contributors:
      Codenvy, S.A. - initial API and implementation

-->
<svg width="105px" height="65px" viewBox="0 0 137 87" version="1.1" xmlns="http://www.w3.org/2000/svg" style="margin-left: 83px;margin-top: 5px;" xmlns:xlink="http://www.w3.org/1999/xlink" fill="#4E4F86">
    <g stroke="none" stroke-width="1" fill="#4E4F86" fill-rule="evenodd">
        <g>
            <g id="EclipseCheLogo" >
                <g>
                    <path d="M24.576,29.553 C40.539,23.138 51.918,32.776 64.63,48.88 L9.28,48.88 C10.608,40.328 16.422,32.828 24.576,29.553 L24.576,29.553 Z M114.923,32.04 C114.609,32.04 114.292,32.047 113.972,32.06 C109.635,23.586 101.159,18.45 91.07,18.56 C86.49,7.169 76.509,0 64.794,0 C56.26,0 48.174,3.857 42.578,10.448 C45.386,11.186 49.03,12.75 51.591,14.072 C55.265,10.835 59.93,8.992 64.794,8.992 C73.685,8.992 80.901,14.953 83.626,24.548 L84.724,28.414 L88.688,27.755 C89.493,27.621 90.392,27.55 91.289,27.55 C98.702,27.55 104.545,31.6 106.918,38.381 L108.189,42.015 L111.975,41.318 C123.069,39.271 128.02,48.565 128.02,57.726 C128.02,63.549 125.918,68.607 122.101,71.968 C117.976,75.601 112.141,77.058 105.229,76.171 C100.199,75.529 96.495,72.873 92.148,68.794 C87.548,64.478 82.952,58.278 78.086,51.713 C64.511,33.402 47.62,10.606 21.224,21.21 C8.53,26.309 0,38.927 0,52.608 C0,71.26 15.174,86.433 33.825,86.433 C42.861,86.433 51.355,82.915 57.743,76.526 C60.309,73.934 62.425,70.937 64.027,67.676 L53.528,67.676 C52.791,68.65 51.984,69.572 51.108,70.433 C51.015,70.523 49.519,71.856 49.494,71.876 C45.078,75.481 39.603,77.442 33.825,77.442 C21.938,77.442 11.98,69.045 9.558,57.872 L71.459,57.872 C76.352,64.469 81.009,70.672 85.995,75.351 C90.755,79.817 96.242,84.089 104.091,85.091 C113.638,86.311 121.922,84.106 128.042,78.717 C133.827,73.625 137.012,66.17 137.012,57.726 C137.012,42.603 127.929,32.04 114.923,32.04 L114.923,32.04 Z"></path>
                </g>
            </g>
        </g>
    </g>
</svg>
