<?xml version="1.0" encoding="UTF-8" standalone="no"?>
<svg width="16px" height="16px" viewBox="0 0 16 16" version="1.1" xmlns="http://www.w3.org/2000/svg" xmlns:xlink="http://www.w3.org/1999/xlink">
    <g stroke="none" stroke-width="1" fill="none" fill-rule="evenodd">
        <g>
            <path d="M12.4285827,10.8214272 C12.4285827,10.6065832 12.2505691,10.4285696 12.0357251,10.4285696 L3.39285761,10.4285696 C3.17801361,10.4285696 3,10.6065832 3,10.8214272 L3,11.6071424 C3,11.8219864 3.17801361,12 3.39285761,12 L12.0357251,12 C12.2505691,12 12.4285827,11.8219864 12.4285827,11.6071424 L12.4285827,10.8214272 Z M12.4285827,7.67856628 C12.4285827,7.46372227 12.2505691,7.28570867 12.0357251,7.28570867 L3.39285761,7.28570867 C3.17801361,7.28570867 3,7.46372227 3,7.67856628 L3,8.4642815 C3,8.67912551 3.17801361,8.85713911 3.39285761,8.85713911 L12.0357251,8.85713911 C12.2505691,8.85713911 12.4285827,8.67912551 12.4285827,8.4642815 L12.4285827,7.67856628 Z M12.4285827,4.53570539 C12.4285827,4.32086138 12.2505691,4.14284778 12.0357251,4.14284778 L3.39285761,4.14284778 C3.17801361,4.14284778 3,4.32086138 3,4.53570539 L3,5.32142061 C3,5.53626462 3.17801361,5.71427822 3.39285761,5.71427822 L12.0357251,5.71427822 C12.2505691,5.71427822 12.4285827,5.53626462 12.4285827,5.32142061 L12.4285827,4.53570539 Z"></path>
        </g>
    </g>
</svg>
