<?xml version="1.0" encoding="utf-8"?>
<!-- Generator: Adobe Illustrator 17.0.0, SVG Export Plug-In . SVG Version: 6.00 Build 0)  -->
<!DOCTYPE svg PUBLIC "-//W3C//DTD SVG 1.1//EN" "http://www.w3.org/Graphics/SVG/1.1/DTD/svg11.dtd">
<svg version="1.1" xmlns="http://www.w3.org/2000/svg" xmlns:xlink="http://www.w3.org/1999/xlink" x="0px" y="0px" width="32px"
	 height="32px" viewBox="0 0 32 32" enable-background="new 0 0 32 32" xml:space="preserve">
<g id="Слой_2">
</g>
<g id="Слой_3">
	<g>
		<path fill="#BD9662" d="M30,10.3531494V8h-3.5977173C27.7402344,8.571106,28.9500732,9.3770142,30,10.3531494z"/>
		<path fill="#BD9662" d="M9.8485107,24H6V12h5.5170288c1.524353-2.0256348,3.6420898-3.5751953,6.104126-4.3788452L14,4H2v24
			h10.3532104C11.281189,26.8469849,10.4263306,25.4946289,9.8485107,24z"/>
	</g>
</g>
<g id="Слой_4">
	<g>
		<path fill="#FF0000" d="M21.497509,9.5C16.2524567,9.5,12,13.7524338,12,18.9975243C12,24.2475357,16.2524567,28.5,21.497509,28.5
			C26.7475433,28.5,31,24.2475357,31,18.9975243C31,13.7524338,26.7475433,9.5,21.497509,9.5L21.497509,9.5z M21.497509,25.0630016
			c-0.7422256,0-1.2479172-0.5720119-1.2479172-1.3142395c0-0.761013,0.529459-1.3142395,1.2479172-1.3142395
			c0.7659931,0,1.2528687,0.5532265,1.2528687,1.3142395C22.7503777,24.4909897,22.2635021,25.0630016,21.497509,25.0630016
			L21.497509,25.0630016z M21.9923248,20.0455379c-0.1889992,0.6452522-0.7847786,0.6571217-0.9856777,0
			c-0.2275963-0.7580509-1.0391045-3.6299839-1.0391045-5.4974213c0-2.4622211,3.0807095-2.4740906,3.0807095,0
			C23.0443268,16.4274235,22.1902657,19.3725929,21.9923248,20.0455379L21.9923248,20.0455379z M21.9923248,20.0455379"/>
	</g>
</g>
</svg>
