<?xml version="1.0" encoding="iso-8859-1"?>
<!-- Generator: Adobe Illustrator 18.1.1, SVG Export Plug-In . SVG Version: 6.00 Build 0)  -->
<svg version="1.1" id="Capa_1" xmlns="http://www.w3.org/2000/svg" xmlns:xlink="http://www.w3.org/1999/xlink" x="0px" y="0px"
	 viewBox="0 0 525.153 525.153" xml:space="preserve">
<g>
	<path fill="#dbdbdb" d="M262.576,167.108c-52.756,0-95.468,42.712-95.468,95.468s42.712,95.468,95.468,95.468s95.468-42.712,95.468-95.468
		S315.332,167.108,262.576,167.108z M475.963,238.682C465.001,139.144,385.987,60.13,286.449,49.189V0h-47.745v49.189
		C139.165,60.13,60.152,139.144,49.167,238.682H0v47.789h49.189c10.984,99.538,89.998,178.552,189.536,189.493v49.189h47.745
		v-49.189c99.538-10.941,178.552-89.954,189.514-189.493h49.167v-47.789C525.153,238.682,475.963,238.682,475.963,238.682z
		 M262.576,429.684c-92.383,0-167.108-74.725-167.108-167.108S170.193,95.468,262.576,95.468s167.108,74.725,167.108,167.108
		S354.959,429.684,262.576,429.684z"/>
</g>
</svg>
