<?xml version="1.0" encoding="utf-8"?>
<!DOCTYPE svg PUBLIC "-//W3C//DTD SVG 1.1//EN" "http://www.w3.org/Graphics/SVG/1.1/DTD/svg11.dtd">
<svg version="1.1" id="closeProject" xmlns="http://www.w3.org/2000/svg" xmlns:xlink="http://www.w3.org/1999/xlink" x="0px" y="0px"
     width="16px" height="16px" viewBox="7 7 18 18" enable-background="new 0 0 32 32" xml:space="preserve">
    <g>
        <path fill-rule="evenodd" clip-rule="evenodd" fill="#4D4D4D" d="M9,8c1.795,0,2.975,0,4.771,0c0.549,0,0.786,0.493,1,1
                l0.614,1.461H23c0.55,0,1,0.451,1,1v5.469l-0.147-0.147c-0.585-0.585-1.536-0.584-2.121,0.001l-1.061,1.06l-1.06-1.06
                c-0.585-0.585-1.535-0.584-2.12,0l-0.708,0.706c-0.586,0.585-0.586,1.537-0.001,2.122l1.061,1.061l-0.864,0.864H9
                c-0.55,0-1-0.45-1-1V9C8,8.45,8.45,8,9,8L9,8z M18.196,23.854c0.195,0.195,0.513,0.194,0.707,0l1.768-1.768l1.769,1.768
                c0.194,0.195,0.512,0.195,0.707,0l0.707-0.707c0.194-0.194,0.194-0.513,0-0.707l-1.768-1.768l1.768-1.768
                c0.194-0.194,0.194-0.513,0-0.707l-0.708-0.708c-0.194-0.194-0.512-0.194-0.707,0.001l-1.768,1.767l-1.767-1.767
                c-0.194-0.194-0.513-0.195-0.707,0l-0.708,0.707c-0.194,0.194-0.194,0.513,0,0.707l1.768,1.768l-1.768,1.768
                c-0.194,0.194-0.194,0.513,0,0.707L18.196,23.854z"/>
    </g>
</svg>