<?xml version="1.0" encoding="UTF-8" standalone="no"?>
<svg width="412px" height="412px" viewBox="0 0 412 412" version="1.1"
    xmlns="http://www.w3.org/2000/svg" xmlns:xlink="http://www.w3.org/1999/xlink">
    <g transform="translate(25,25) scale(0.875, 0.875)">
      <path d="M310.277,101.999 L310.277,0.001 L0,0.001 L0,310.138 L102,310.138 L102,411.999 L412,411.999 L412,101.999 L310.277,101.999 L310.277,101.999 Z M40,270.138 L40,40.001 L270.277,40.001 L270.277,101.999 L102,101.999 L102,270.138 L40,270.138 L40,270.138 Z M141.5,371.499 L141.5,141.832 L162.069,141.832 L208.749,176.832 L308,176.832 L354.894,141.832 L371.5,141.832 L371.5,371.499 L141.5,371.499 Z"></path>
    </g>
</svg>
