<?xml version="1.0" encoding="UTF-8" standalone="no"?>

<!DOCTYPE svg PUBLIC "-//W3C//DTD SVG 1.1//EN" "http://www.w3.org/Graphics/SVG/1.1/DTD/svg11.dtd">

<svg id="svg2" xmlns:rdf="http://www.w3.org/1999/02/22-rdf-syntax-ns#" xmlns="http://www.w3.org/2000/svg" xml:space="preserve"
height="48" width="48" version="1.1" xmlns:cc="http://web.resource.org/cc/" xmlns:dc="http://purl.org/dc/elements/1.1/"
viewBox="0 0 48 48">
	<rect style="fill:none" rx="0" ry="0" height="48" width="48" y="0" x="0"/>
	<path style="stroke-linejoin:round;stroke:#fff;stroke-linecap:round;stroke-width:9px;fill:none"
		d="m20 39a4.5 6 0 1 1 -9 0 4.5 6 0 1 1 9 0z" transform="translate(-.5 -2.5)"/>
	<path style="stroke-linejoin:round;stroke:#fff;stroke-linecap:round;stroke-width:9px;fill:none"
		d="m20 39a4.5 6 0 1 1 -9 0 4.5 6 0 1 1 9 0z" transform="translate(17.5,-2.5)"/>
	<path style="stroke-linejoin:round;stroke:#fff;stroke-linecap:round;stroke-width:6px;fill:none"
		d="m29.5 30.4l-2.5-4.4c2.9-2 6.3-4.2 9-9 3.9-6.8-2-12-2-12l-10 16-10-16s-5.9 5.2-2 12c2.7 4.7 6.1 7.1
		9 9l-2.5 4.4 2.5 5.6c0.1-1.6 2-7 2-7s0.3-1.6 1-2c0.6 0.5 1 2 1 2s1.9 5.3 2 7l2.5-5.6z"/>
	<path d="m29.5 30.4l-2.5-4.4c2.9-2 6.3-4.2 9-9 3.9-6.8-2-12-2-12l-10 16-10-16s-5.9 5.2-2 12c2.7
		4.7 6.1 7.1 9 9l-2.5 4.4 2.5 5.6c0.1-1.6 2-7 2-7s0.3-1.6 1-2c0.6 0.5 1 2 1 2s1.9 5.3 2 7l2.5-5.6z"/>
	<path style="stroke-linejoin:round;stroke:#000;stroke-linecap:round;stroke-width:3;fill:none"
		d="m20 39a4.5 6 0 1 1 -9 0 4.5 6 0 1 1 9 0z" transform="translate(-.5 -2.5)"/>
	<path style="stroke-linejoin:round;stroke:#000;stroke-linecap:round;stroke-width:3;fill:none"
		d="m20 39a4.5 6 0 1 1 -9 0 4.5 6 0 1 1 9 0z" transform="translate(17.5,-2.5)"/>
</svg>
