<?xml version="1.0" encoding="UTF-8" standalone="no"?>
<svg width="396px" height="381px" viewBox="0 0 396 381" version="1.1" xmlns="http://www.w3.org/2000/svg" xmlns:xlink="http://www.w3.org/1999/xlink">
    <g transform="scale(0.879, 0.9115) translate(24.75, 23.81)">
        <path d="M319.808,308.192 L220.506,308.192 L220.506,278.143 L319.808,278.143 L319.808,308.192 L319.808,308.192 Z M319.774,252.685 L220.505,252.685 L220.505,222.636 L319.774,222.636 L319.774,252.685 L319.774,252.685 Z M332.594,104.547 L142.191,104.547 L142.191,381 L395.084,381 L395.084,166.982 L332.594,104.547 L332.594,104.547 Z M182.257,340.935 L182.257,144.612 L302.545,144.612 L355.019,190.019 L355.019,340.935 L182.257,340.935 Z M40.48,306.045 L40.48,40.616 L100.912,40.616 L125.869,65.657 L209.254,65.657 L234.545,40.616 L291.888,40.616 L291.888,72.497 L332.453,72.497 L332.453,0.718 L275.391,0.718 L57.979,0.717 L0.916,0.717 L0.916,346.61 L106.555,346.61 L106.555,306.045 L40.48,306.045 Z"></path>
    </g>
</svg>
