<?xml version="1.0" ?><!DOCTYPE svg  PUBLIC '-//W3C//DTD SVG 1.1//EN'  'http://www.w3.org/Graphics/SVG/1.1/DTD/svg11.dtd'><svg enable-background="new 0 0 28.062 28.568" height="28.568px" id="Capa_1" version="1.1" viewBox="0 0 28.062 28.568" width="28.062px" xml:space="preserve" xmlns="http://www.w3.org/2000/svg" xmlns:xlink="http://www.w3.org/1999/xlink"><path d="M26.878,11.949c0.206-0.344,0.332-0.743,0.332-1.172V2.751c0-0.726-0.256-1.438-0.755-1.96C25.97,0.282,25.319,0,24.629,0  c-0.499,0-1.247,0.149-1.971,0.862c0,0-0.641,0.621-1.35,1.317c-2.161-1.26-4.604-1.921-7.144-1.921  c-3.786,0-7.347,1.475-10.021,4.152c-2.796,2.795-4.303,6.676-4.132,10.646c0.03,0.733,0.524,1.344,1.187,1.563  c-0.207,0.343-0.318,0.742-0.318,1.171v8.025c-0.053,0.726,0.242,1.438,0.741,1.96c0.484,0.51,1.13,0.791,1.818,0.791  c0.498,0,1.244-0.149,1.969-0.862c0,0,0.638-0.621,1.347-1.317c2.161,1.26,4.604,1.921,7.144,1.921c3.785,0,7.346-1.475,10.021-4.15  c2.795-2.797,4.301-6.678,4.131-10.646C28.02,12.779,27.539,12.168,26.878,11.949z M5.363,5.635  c2.434-2.432,5.616-3.647,8.803-3.647c2.588,0,5.177,0.801,7.364,2.397c0.955-0.945,2.338-2.292,2.338-2.292  c0.265-0.261,0.528-0.368,0.763-0.368c0.503,0,0.852,0.493,0.852,0.996v8.052c0,0.312-0.259,0.558-0.567,0.558h-1.139  c-0.31,0-0.563,0-0.563,0s-0.254-0.002-0.562-0.002l-5.854,0.002c-0.006,0-0.014,0-0.02,0c-0.506,0-1.455-0.602-0.59-1.641  c0,0,1.252-1.254,2.338-2.329c-1.33-0.812-2.839-1.219-4.348-1.219c-2.125,0-4.249,0.812-5.87,2.436  c-1.761,1.76-2.551,4.112-2.403,6.417H1.735C1.591,11.591,2.792,8.207,5.363,5.635z M18.538,18.777  c-1.241,1.241-2.894,1.927-4.649,1.927c-0.431,0-0.855-0.043-1.272-0.124c0.295-0.295,0.484-0.485,0.484-0.485  c0.036-0.036,0.069-0.074,0.104-0.113c1.096-1.312,0.729-2.487,0.52-2.935c-0.494-1.054-1.606-1.529-2.434-1.529  c-0.007,0-0.021,0-0.031,0l-3.713-0.003c0.063-0.203,0.093-0.42,0.078-0.637c-0.122-1.901,0.57-3.754,1.899-5.084  c1.242-1.241,2.895-1.925,4.651-1.925c0.43,0,0.854,0.041,1.273,0.122c-0.297,0.295-0.485,0.484-0.485,0.484  c-0.036,0.036-0.07,0.074-0.104,0.113c-1.095,1.313-0.728,2.49-0.519,2.936c0.494,1.056,1.605,1.531,2.434,1.531  c0.009,0,0.02,0,0.031,0l3.713,0.001c-0.063,0.205-0.092,0.422-0.079,0.638C20.561,15.595,19.868,17.447,18.538,18.777z   M22.699,22.936c-2.434,2.434-5.615,3.647-8.802,3.647c-2.589,0-5.178-0.8-7.365-2.398c-0.955,0.946-2.337,2.293-2.337,2.293  c-0.265,0.26-0.517,0.367-0.75,0.367c-0.504,0-0.892-0.493-0.84-0.996v-8.052c0-0.312,0.234-0.553,0.544-0.553h1.138  c0.311,0,0.563,0,0.563,0s0.253,0.001,0.563,0.001l5.854-0.001c0.006,0,0.014,0,0.02,0c0.505,0,1.454,0.599,0.589,1.637  c0,0-1.251,1.254-2.337,2.329c1.33,0.812,2.838,1.219,4.348,1.219c2.124,0,4.249-0.812,5.87-2.434  c1.76-1.761,2.55-4.112,2.402-6.416h4.166C26.472,16.93,25.271,20.365,22.699,22.936z"/></svg>