<?xml version="1.0" encoding="UTF-8" standalone="no"?>
<svg width="413px" height="324px" viewBox="0 0 413 324" version="1.1" xmlns="http://www.w3.org/2000/svg" xmlns:xlink="http://www.w3.org/1999/xlink">
    <g>
        <path d="M95.1990576,163.878278 L144,163.878278 L72,231.403796 L0,163.878278 L42.5147187,163.878278 C42.7797257,73.3380716 116.298858,0 206.95,0 C252.357,2.84060553e-14 293.467,18.3948629 323.223,48.1354733 L285.971,85.3679551 C265.746,65.1550941 237.809,52.6549827 206.95,52.6549827 C145.394884,52.6549827 95.4637897,102.418083 95.1990576,163.878278 L95.1990576,163.878278 Z M341,91.1026708 L413,158.628189 L269,158.628189 L341,91.1026708 Z M412,158.630581 L316.802,158.630581 C316.802,220.316587 266.769,270.345017 205.05,270.345017 C174.191,270.345017 146.253,257.843906 126.029,237.632045 L88.777,274.864527 C118.535,304.605137 159.644,323 205.05,323 C295.864,323 369.486,249.396562 369.486,158.631581 C369.486,158.624585 412,158.630581 412,158.630581 Z" fill="#dbdbdb"></path>
    </g>
</svg>
