<?xml version="1.0" encoding="utf-8"?>
<!DOCTYPE svg PUBLIC "-//W3C//DTD SVG 1.1//EN" "http://www.w3.org/Graphics/SVG/1.1/DTD/svg11.dtd">
<svg version="1.1" id="uploadFolder" xmlns="http://www.w3.org/2000/svg" xmlns:xlink="http://www.w3.org/1999/xlink" x="0px" y="0px"
     width="16px" height="16px" viewBox="7 7 18 18" enable-background="new 0 0 32 32" xml:space="preserve">
    <g>
        <path fill-rule="evenodd" clip-rule="evenodd" fill="#4D4D4D" d="M9,8c1.795,0,2.976,0,4.771,0c0.549,0,0.786,0.493,1,1
        		l0.615,1.461v0.728h0.728v0.728v0.727h0.45c0.164,0,0.307,0.108,0.353,0.268c0.483,1.629,0.609,1.982,0.607,1.982
        		c0.029,0.097,0.046,0.193,0.046,0.295c0,0.631-0.609,1.091-1.456,1.091s-1.456-0.46-1.456-1.091c0-0.102,0.018-0.198,0.046-0.295
        		c0,0,0.119-0.354,0.688-2.25v-0.727h0.723h0.724v-0.728h-0.724v-0.728H23c0.55,0,1,0.451,1,1v9.075c0,0.55-0.45,1-1,1h-2.514
        		l-4.487-4.486l-4.485,4.486H9c-0.55,0-1-0.45-1-1V9C8,8.45,8.45,8,9,8L9,8z M17,24v-3.415h1.121L16,18.464l-2.121,2.121H15V24H17
        		L17,24z M16.113,15.552c0.407,0,0.733-0.165,0.733-0.363c0-0.198-0.326-0.363-0.733-0.363s-0.733,0.165-0.733,0.363
        		C15.38,15.388,15.706,15.552,16.113,15.552z"/>
    </g>
</svg>