<?xml version="1.0" encoding="UTF-8" standalone="no"?>
<svg width="412px" height="330px" viewBox="0 0 412 330" version="1.1" xmlns="http://www.w3.org/2000/svg" xmlns:xlink="http://www.w3.org/1999/xlink">
    <g stroke-width="1" fill-rule="evenodd">
        <path d="M175.087,47.265 C162.325,47.265 150.083,42.21 141.039,33.206 L108.35,0.66 L0,0.66 L0,329.34 L412,329.34 L412,47.265 L175.087,47.265 Z M170.5,73 L241.5,73 L241.5,91 L170.5,91 L170.5,73 Z M170.5,105 L241.5,105 L241.5,123 L170.5,123 L170.5,105 Z M170.5,137 L241.5,137 L241.5,155 L170.5,155 L170.5,137 Z M256.442348,204.412099 L256.442348,233.236298 L285.281584,233.236298 C293.232862,233.236298 299.678646,226.839275 299.678646,218.824199 C299.678646,210.864617 293.298982,204.412099 285.281584,204.412099 L256.442348,204.412099 L256.442348,204.412099 Z M242.030249,218.824199 L242.030249,290.884696 L256.442348,290.884696 L256.442348,247.648398 L285.196194,247.648398 C301.154215,247.648398 314.090746,234.85435 314.090746,218.824199 C314.090746,202.905033 301.207773,190 285.196194,190 L242.030249,190 L242.030249,218.824199 L242.030249,218.824199 Z M198.79395,204.412099 L198.79395,276.472597 L184.381851,276.472597 L184.381851,290.884696 L227.618149,290.884696 L227.618149,276.472597 L213.20605,276.472597 L213.20605,204.412099 L227.618149,204.412099 L227.618149,190 L184.381851,190 L184.381851,204.412099 L198.79395,204.412099 L198.79395,204.412099 Z M112.321354,276.472597 L169.969751,204.412099 L169.969751,190 L97.9092543,190 L97.9092543,204.412099 L155.557652,204.412099 L97.9092543,276.472597 L97.9092543,290.884696 L169.969751,290.884696 L169.969751,276.472597 L112.321354,276.472597 L112.321354,276.472597 Z"></path>
    </g>
</svg>